<svg xmlns="http://www.w3.org/2000/svg" viewBox="0 0 100 100">
  <defs>
    <linearGradient id="g" x1="0" y1="0" x2="1" y2="1">
      <stop offset="0%" stop-color="#2b90d9"/>
      <stop offset="100%" stop-color="#8bd450"/>
    </linearGradient>
  </defs>
  <rect width="100" height="100" rx="8" fill="url(#g)"/>
  <!-- mosaic grid -->
  <g opacity="0.85">
    <rect x="8" y="8" width="20" height="20" fill="#ffffff33"/>
    <rect x="30" y="8" width="20" height="20" fill="#00000022"/>
    <rect x="52" y="8" width="20" height="20" fill="#ffffff33"/>
    <rect x="74" y="8" width="18" height="20" fill="#00000022"/>

    <rect x="8" y="30" width="20" height="20" fill="#00000022"/>
    <rect x="30" y="30" width="20" height="20" fill="#ffffff33"/>
    <rect x="52" y="30" width="20" height="20" fill="#00000022"/>
    <rect x="74" y="30" width="18" height="20" fill="#ffffff33"/>

    <rect x="8" y="52" width="20" height="20" fill="#ffffff33"/>
    <rect x="30" y="52" width="20" height="20" fill="#00000022"/>
    <rect x="52" y="52" width="20" height="20" fill="#ffffff33"/>
    <rect x="74" y="52" width="18" height="20" fill="#00000022"/>

    <rect x="8" y="74" width="20" height="18" fill="#00000022"/>
    <rect x="30" y="74" width="20" height="18" fill="#ffffff33"/>
    <rect x="52" y="74" width="20" height="18" fill="#00000022"/>
    <rect x="74" y="74" width="18" height="18" fill="#ffffff33"/>
  </g>
  <!-- camera glyph -->
  <g fill="#fff" opacity="0.9">
    <rect x="22" y="42" width="56" height="30" rx="5"/>
    <rect x="32" y="36" width="16" height="10" rx="2"/>
    <circle cx="50" cy="57" r="10" fill="#2b90d9"/>
    <circle cx="50" cy="57" r="6" fill="#fff"/>
  </g>
</svg>